<svg width="100" height="100" viewBox="0 0 100 100" fill="none" xmlns="http://www.w3.org/2000/svg">
<rect x="0.5" y="0.5" width="99" height="99" rx="3.5" fill="#146EF5"/>
<rect x="0.5" y="0.5" width="99" height="99" rx="3.5" stroke="#146EF5"/>
<rect x="7.5" y="7.5" width="85" height="85" rx="2.5" stroke="white" stroke-width="3"/>
<path d="M46.6682 15.974C47.8075 14.4075 50.2857 15.2134 50.2857 17.1504V39C50.2857 40.1046 51.1811 41 52.2857 41H72.0725C73.707 41 74.6513 42.8544 73.6899 44.1763L45.3318 83.1688C44.1925 84.7353 41.7143 83.9294 41.7143 81.9925V60.1429C41.7143 59.0383 40.8189 58.1429 39.7143 58.1429H19.9275C18.293 58.1429 17.3487 56.2885 18.3101 54.9665L46.6682 15.974Z" stroke="#146EF5" stroke-linecap="round" stroke-linejoin="round"/>
<path d="M50.6682 15.974C51.8075 14.4075 54.2857 15.2134 54.2857 17.1504V39C54.2857 40.1046 55.1811 41 56.2857 41H76.0725C77.707 41 78.6513 42.8544 77.6899 44.1763L49.3318 83.1688C48.1925 84.7353 45.7143 83.9295 45.7143 81.9925V60.1429C45.7143 59.0383 44.8189 58.1429 43.7143 58.1429H23.9275C22.293 58.1429 21.3487 56.2885 22.3101 54.9665L50.6682 15.974Z" fill="white" stroke="#146EF5" stroke-linecap="round" stroke-linejoin="round"/>
</svg>
